<!DOCTYPE svg PUBLIC "-//W3C//DTD SVG 1.1//EN" "http://www.w3.org/Graphics/SVG/1.1/DTD/svg11.dtd">
<!-- Uploaded to: SVG Repo, www.svgrepo.com, Transformed by: SVG Repo Mixer Tools -->
<svg fill="#000000" height="64px" width="64px" version="1.1" id="Capa_1" xmlns="http://www.w3.org/2000/svg" xmlns:xlink="http://www.w3.org/1999/xlink" viewBox="0 0 482.512 482.512" xml:space="preserve">
<g id="SVGRepo_bgCarrier" stroke-width="0"/>
<g id="SVGRepo_tracerCarrier" stroke-linecap="round" stroke-linejoin="round"/>
<g id="SVGRepo_iconCarrier"> <g> <path d="M346.225,103.299L169.093,1.005c-2.322-1.341-5.181-1.34-7.501,0c0,0-25.303,14.608-25.305,14.609 c-2.32,1.34-3.75,3.816-3.75,6.496v350.661c0,2.68,1.43,5.156,3.751,6.496l177.133,102.241c1.16,0.669,2.454,1.004,3.749,1.004 c1.294,0,3.748-1.003,3.748-1.003l25.304-14.597c2.321-1.339,3.752-3.816,3.752-6.497V109.794 C349.974,107.114,348.544,104.639,346.225,103.299z M317.153,115.733l-35.632-20.577l10.316-5.944l35.63,20.576L317.153,115.733z M186.878,116.276l75.909,43.832c1.16,0.67,2.455,1.005,3.75,1.005s2.59-0.335,3.75-1.005c2.32-1.339,3.75-3.815,3.75-6.495v-16.26 l10.326,5.963l-0.021,274.885l-111.494-64.397V78.927l10.28,5.934v24.921C183.128,112.461,184.558,114.937,186.878,116.276z M259.038,140.622l-60.909-35.17V64.318l60.909,35.175V140.622z M204.266,50.541l10.674-5.737l61.891,35.742l-10.316,5.944 L204.266,50.541z M165.341,16.161l34.325,19.823l-10.674,5.737l-33.957-19.61L165.341,16.161z M147.538,368.44V35.102 l35.591,20.553v11.886l-14.031-8.099c-2.32-1.34-5.179-1.339-7.499,0s-3.75,3.816-3.75,6.495v292.195 c0,2.679,1.429,5.155,3.749,6.495l126.493,73.061c1.16,0.67,2.456,1.005,3.751,1.005s2.589-0.335,3.749-1.004 c2.321-1.339,3.751-3.815,3.751-6.495l0.022-292.207c0-2.679-1.429-5.155-3.749-6.495l-21.577-12.461v-11.876l35.612,20.566 l0.02,333.301L147.538,368.44z M324.67,462.027l-0.02-333.302l10.324-5.951v333.309L324.67,462.027z"/> <path d="M212.18,101.667l25.326,14.622c1.182,0.682,2.471,1.006,3.743,1.006c2.592,0,5.113-1.346,6.502-3.751 c2.071-3.587,0.842-8.174-2.745-10.245L219.68,88.677c-3.589-2.071-8.175-0.842-10.245,2.745 C207.364,95.009,208.593,99.596,212.18,101.667z"/> <path d="M186.897,174.727l75.895,43.818c1.182,0.682,2.471,1.006,3.743,1.006c2.592,0,5.113-1.346,6.502-3.751 c2.071-3.587,0.842-8.174-2.745-10.245l-75.895-43.818c-3.589-2.072-8.175-0.842-10.245,2.745 C182.081,168.069,183.31,172.656,186.897,174.727z"/> <path d="M186.897,218.555l75.894,43.817c1.182,0.682,2.471,1.006,3.743,1.006c2.592,0,5.113-1.346,6.502-3.751 c2.071-3.587,0.842-8.174-2.745-10.245l-75.894-43.817c-3.589-2.073-8.175-0.842-10.245,2.745 C182.081,211.898,183.31,216.484,186.897,218.555z"/> <path d="M186.897,306.205l75.914,43.829c1.182,0.682,2.471,1.006,3.743,1.006c2.592,0,5.113-1.346,6.502-3.751 c2.071-3.587,0.842-8.174-2.745-10.245l-75.914-43.829c-3.589-2.072-8.175-0.842-10.245,2.745 C182.081,299.547,183.31,304.134,186.897,306.205z"/> <path d="M186.897,262.377l75.914,43.829c1.182,0.682,2.471,1.006,3.743,1.006c2.592,0,5.113-1.346,6.502-3.751 c2.071-3.587,0.842-8.174-2.745-10.245l-75.914-43.829c-3.589-2.072-8.175-0.842-10.245,2.745 C182.081,255.719,183.31,260.306,186.897,262.377z"/> </g> </g>
</svg>